<?xml version="1.0" encoding="UTF-8" standalone="no"?><!DOCTYPE svg PUBLIC "-//W3C//DTD SVG 1.1//EN" "http://www.w3.org/Graphics/SVG/1.1/DTD/svg11.dtd"><svg width="100%" height="100%" viewBox="0 0 1875 417" version="1.1" xmlns="http://www.w3.org/2000/svg" xmlns:xlink="http://www.w3.org/1999/xlink" xml:space="preserve" xmlns:serif="http://www.serif.com/" style="fill-rule:evenodd;clip-rule:evenodd;stroke-linejoin:round;stroke-miterlimit:2;"><g transform="matrix(2.08333,0,0,2.08333,-528.824,-674.314)"><g transform="matrix(176,0,0,176,292.772,484.673)"><rect x="0.068" y="-0.72" width="0.139" height="0.72" style="fill-rule:nonzero;"/></g><g transform="matrix(176,0,0,176,341.67,484.673)"><path d="M0.085,-0.475c0.037,-0.046 0.1,-0.07 0.189,-0.07c0.059,0 0.11,0.012 0.156,0.035c0.045,0.023 0.068,0.066 0.068,0.131l-0,0.244c-0,0.017 -0,0.037 0.001,0.061c0.001,0.018 0.003,0.031 0.008,0.037c0.004,0.007 0.011,0.012 0.02,0.016l0,0.021l-0.151,0c-0.004,-0.011 -0.007,-0.021 -0.009,-0.03c-0.001,-0.01 -0.003,-0.02 -0.004,-0.032c-0.019,0.02 -0.041,0.038 -0.066,0.053c-0.03,0.017 -0.064,0.026 -0.102,0.026c-0.048,-0 -0.088,-0.014 -0.119,-0.042c-0.031,-0.027 -0.047,-0.066 -0.047,-0.117c-0,-0.065 0.025,-0.112 0.075,-0.142c0.028,-0.016 0.069,-0.027 0.123,-0.034l0.047,-0.006c0.026,-0.003 0.044,-0.007 0.055,-0.012c0.02,-0.008 0.03,-0.022 0.03,-0.039c-0,-0.022 -0.008,-0.037 -0.023,-0.046c-0.015,-0.008 -0.037,-0.012 -0.066,-0.012c-0.033,-0 -0.057,0.008 -0.07,0.024c-0.01,0.012 -0.017,0.029 -0.02,0.049l-0.134,0c0.003,-0.046 0.016,-0.085 0.039,-0.115Zm0.103,0.374c0.013,0.011 0.029,0.017 0.048,0.017c0.03,-0 0.058,-0.009 0.083,-0.027c0.025,-0.017 0.038,-0.049 0.039,-0.096l0,-0.052c-0.008,0.006 -0.017,0.01 -0.026,0.014c-0.009,0.003 -0.021,0.006 -0.037,0.009l-0.031,0.006c-0.03,0.005 -0.051,0.012 -0.063,0.019c-0.022,0.013 -0.033,0.032 -0.033,0.059c0,0.024 0.007,0.041 0.02,0.051Z" style="fill-rule:nonzero;"/></g><g transform="matrix(176,0,0,176,439.553,484.673)"><path d="M0.315,-0.429c-0.047,-0 -0.079,0.02 -0.097,0.06c-0.009,0.021 -0.013,0.048 -0.013,0.081l-0,0.288l-0.139,-0l-0,-0.531l0.134,-0l0,0.077c0.018,-0.027 0.035,-0.047 0.051,-0.059c0.029,-0.021 0.065,-0.032 0.109,-0.032c0.055,0 0.1,0.014 0.135,0.043c0.035,0.029 0.052,0.077 0.052,0.144l0,0.358l-0.142,-0l-0,-0.324c-0,-0.028 -0.004,-0.049 -0.011,-0.064c-0.014,-0.028 -0.04,-0.041 -0.079,-0.041Z" style="fill-rule:nonzero;"/></g><g transform="matrix(176,0,0,176,547.061,484.673)"><path d="M0.215,0.093c0.015,0.013 0.041,0.019 0.076,0.019c0.05,0 0.084,-0.016 0.101,-0.05c0.011,-0.021 0.016,-0.058 0.016,-0.108l0,-0.035c-0.013,0.023 -0.027,0.04 -0.043,0.052c-0.027,0.021 -0.063,0.031 -0.108,0.031c-0.068,0 -0.123,-0.024 -0.163,-0.072c-0.041,-0.048 -0.062,-0.113 -0.062,-0.195c0,-0.079 0.02,-0.145 0.059,-0.199c0.04,-0.054 0.096,-0.081 0.168,-0.081c0.026,0 0.05,0.004 0.07,0.012c0.033,0.014 0.061,0.04 0.082,0.077l-0,-0.076l0.135,-0l-0,0.505c-0,0.068 -0.012,0.12 -0.035,0.155c-0.039,0.06 -0.116,0.09 -0.228,0.09c-0.068,-0 -0.124,-0.014 -0.167,-0.04c-0.043,-0.027 -0.067,-0.067 -0.071,-0.12l0.151,0c0.004,0.016 0.011,0.028 0.019,0.035Zm-0.023,-0.275c0.019,0.045 0.053,0.068 0.101,0.068c0.033,-0 0.061,-0.013 0.083,-0.037c0.022,-0.025 0.034,-0.064 0.034,-0.118c-0,-0.05 -0.011,-0.088 -0.032,-0.115c-0.022,-0.026 -0.05,-0.039 -0.086,-0.039c-0.049,-0 -0.083,0.023 -0.101,0.069c-0.01,0.024 -0.015,0.054 -0.015,0.09c0,0.031 0.005,0.058 0.016,0.082Z" style="fill-rule:nonzero;"/></g><g transform="matrix(176,0,0,176,654.568,484.673)"><path d="M0.333,-0.404c-0.056,0 -0.094,0.018 -0.113,0.055c-0.011,0.02 -0.016,0.052 -0.016,0.095l-0,0.254l-0.141,-0l0,-0.532l0.133,-0l0,0.093c0.022,-0.036 0.04,-0.06 0.056,-0.073c0.026,-0.022 0.06,-0.033 0.102,-0.033c0.003,0 0.012,0.001 0.019,0.001l-0,0.143c-0.009,-0.001 -0.017,-0.002 -0.024,-0.002c-0.007,-0.001 -0.012,-0.001 -0.016,-0.001Z" style="fill:#23a8ff;fill-rule:nonzero;"/></g><g transform="matrix(176,0,0,176,723.061,484.673)"><path d="M0.509,-0.465c0.045,0.056 0.067,0.123 0.067,0.2c0,0.078 -0.022,0.145 -0.067,0.2c-0.045,0.056 -0.113,0.084 -0.205,0.084c-0.091,-0 -0.159,-0.028 -0.204,-0.084c-0.045,-0.055 -0.068,-0.122 -0.068,-0.2c0,-0.077 0.023,-0.144 0.068,-0.2c0.045,-0.056 0.113,-0.084 0.204,-0.084c0.092,-0 0.16,0.028 0.205,0.084Zm-0.205,0.033c-0.041,0 -0.072,0.015 -0.094,0.044c-0.022,0.028 -0.033,0.069 -0.033,0.123c-0,0.053 0.011,0.094 0.033,0.123c0.022,0.029 0.053,0.044 0.094,0.044c0.04,-0 0.072,-0.015 0.093,-0.044c0.022,-0.029 0.033,-0.07 0.033,-0.123c0,-0.054 -0.011,-0.095 -0.033,-0.123c-0.021,-0.029 -0.053,-0.044 -0.093,-0.044Z" style="fill:#23a8ff;fill-rule:nonzero;"/></g><g transform="matrix(176,0,0,176,830.568,484.673)"><path d="M0.525,-0.341l-0.142,-0c-0.003,-0.02 -0.009,-0.038 -0.02,-0.054c-0.016,-0.022 -0.04,-0.032 -0.073,-0.032c-0.047,-0 -0.079,0.023 -0.096,0.07c-0.009,0.024 -0.014,0.057 -0.014,0.098c0,0.039 0.005,0.071 0.014,0.094c0.016,0.045 0.048,0.067 0.094,0.067c0.032,-0 0.055,-0.009 0.069,-0.027c0.014,-0.017 0.022,-0.04 0.025,-0.068l0.142,0c-0.003,0.042 -0.019,0.082 -0.046,0.12c-0.044,0.061 -0.108,0.092 -0.194,0.092c-0.085,-0 -0.148,-0.026 -0.189,-0.077c-0.04,-0.05 -0.06,-0.116 -0.06,-0.197c-0,-0.092 0.022,-0.163 0.067,-0.214c0.044,-0.051 0.106,-0.076 0.184,-0.076c0.067,0 0.121,0.015 0.164,0.045c0.042,0.03 0.068,0.083 0.075,0.159Z" style="fill:#23a8ff;fill-rule:nonzero;"/></g><g transform="matrix(176,0,0,176,928.451,484.673)"><path d="M0.553,-0l-0.168,-0l-0.127,-0.228l-0.058,0.061l0,0.167l-0.137,-0l0,-0.717l0.137,-0l0,0.387l0.174,-0.2l0.172,0l-0.186,0.204l0.193,0.326Z" style="fill:#23a8ff;fill-rule:nonzero;"/></g><g transform="matrix(176,0,0,176,1026.33,484.673)"><path d="M0.432,-0.508c0.041,0.027 0.065,0.073 0.071,0.138l-0.139,-0c-0.002,-0.018 -0.007,-0.032 -0.015,-0.043c-0.015,-0.018 -0.041,-0.028 -0.078,-0.028c-0.03,0 -0.052,0.005 -0.065,0.014c-0.013,0.01 -0.019,0.021 -0.019,0.033c0,0.016 0.007,0.028 0.021,0.035c0.013,0.008 0.062,0.02 0.145,0.039c0.055,0.013 0.096,0.032 0.124,0.059c0.027,0.026 0.041,0.06 0.041,0.1c0,0.053 -0.02,0.096 -0.059,0.129c-0.039,0.033 -0.1,0.05 -0.182,0.05c-0.083,0 -0.145,-0.018 -0.185,-0.053c-0.04,-0.035 -0.06,-0.08 -0.06,-0.135l0.141,0c0.003,0.025 0.01,0.042 0.019,0.053c0.018,0.018 0.05,0.028 0.096,0.028c0.027,-0 0.049,-0.004 0.065,-0.013c0.016,-0.008 0.024,-0.02 0.024,-0.036c0,-0.016 -0.006,-0.028 -0.019,-0.036c-0.013,-0.008 -0.061,-0.022 -0.145,-0.042c-0.06,-0.015 -0.103,-0.034 -0.128,-0.056c-0.024,-0.022 -0.037,-0.054 -0.037,-0.096c0,-0.049 0.02,-0.091 0.058,-0.126c0.039,-0.036 0.093,-0.053 0.163,-0.053c0.066,-0 0.121,0.013 0.163,0.039Z" style="fill:#23a8ff;fill-rule:nonzero;"/></g></g></svg>