<?xml version="1.0" encoding="UTF-8" standalone="no"?>
<!DOCTYPE svg PUBLIC "-//W3C//DTD SVG 1.1//EN" "http://www.w3.org/Graphics/SVG/1.1/DTD/svg11.dtd">
<svg width="100%" height="100%" viewBox="0 0 750 450" version="1.1" xmlns="http://www.w3.org/2000/svg" xmlns:xlink="http://www.w3.org/1999/xlink" xml:space="preserve" xmlns:serif="http://www.serif.com/" style="fill-rule:evenodd;clip-rule:evenodd;stroke-linejoin:round;stroke-miterlimit:2;">
    <g transform="matrix(0.75,0,0,0.75,0,0)">
        <g transform="matrix(1.27974,0,0,1.62041,-179.256,-694.54)">
            <g transform="matrix(0.781408,0,0,0.617129,28.4248,117.707)">
                <g transform="matrix(720,0,0,720,150.692,1062.91)">
                    <path d="M0.076,-0.72L0.227,-0.72L0.227,-0.129L0.583,-0.129L0.583,-0L0.076,-0L0.076,-0.72Z" style="fill-rule:nonzero;"/>
                </g>
                <g transform="matrix(720,0,0,720,590.497,1062.91)">
                    <path d="M0.382,-0.282L0.227,-0.282L0.227,-0L0.08,-0L0.08,-0.72L0.433,-0.72C0.483,-0.719 0.522,-0.713 0.549,-0.701C0.576,-0.69 0.599,-0.673 0.618,-0.651C0.634,-0.633 0.646,-0.612 0.655,-0.59C0.664,-0.568 0.669,-0.543 0.669,-0.515C0.669,-0.48 0.66,-0.447 0.643,-0.414C0.626,-0.381 0.597,-0.357 0.558,-0.344C0.591,-0.33 0.614,-0.311 0.628,-0.287C0.642,-0.262 0.649,-0.225 0.649,-0.174L0.649,-0.126C0.649,-0.093 0.65,-0.071 0.653,-0.059C0.657,-0.041 0.666,-0.027 0.68,-0.018L0.68,-0L0.515,-0C0.51,-0.016 0.507,-0.029 0.505,-0.039C0.501,-0.059 0.499,-0.079 0.499,-0.101L0.498,-0.167C0.497,-0.213 0.489,-0.244 0.472,-0.259C0.456,-0.275 0.426,-0.282 0.382,-0.282ZM0.473,-0.413C0.503,-0.427 0.518,-0.454 0.518,-0.494C0.518,-0.538 0.504,-0.567 0.475,-0.582C0.458,-0.59 0.434,-0.595 0.401,-0.595L0.227,-0.595L0.227,-0.401L0.397,-0.401C0.431,-0.401 0.456,-0.405 0.473,-0.413Z" style="fill:rgb(35,168,255);fill-rule:nonzero;"/>
                </g>
            </g>
        </g>
    </g>
</svg>
